# xmcd CD database file
# 
# Track frame offsets:
# 	150
# 	9875
# 	22875
# 	34430
# 	45341
# 	56423
# 	75452
# 	86734
# 	98450
# 	113253
# 	129913
# 	143633
# 	157045
# 	178448
# 	196390
# 
# Disc length: 2825 seconds
# 
# Submitted via: Nero 6, 6, 1, 15
# 
# Revision: 0
# Processed by: cddbd v1.5.2PL0 Copyright (c) Steve Scherf et al.
#
DISCID=ac0b070f
DTITLE=Various Artist - Classic Bluegrass Collection, Volume 1 [CD-1 of 2)
DYEAR=1900
DGENRE=
TTITLE0=Bill Monroe and His Bluegrass Boys - Blue Moon Of Kentucky[Bill Monroe and 
TTITLE0=His Bluegrass Boys]
TTITLE1=Mac Wiseman - I Wonder How The Old Folks Are At Home[Mac Wiseman]
TTITLE2=Jimmy Martin - Sunny Side Of The Mountain[Jimmy Martin]
TTITLE3=Jim and Jesse - Are You Missing Me?[Jim and Jesse]
TTITLE4=Reno And Smiley - Don't Let YOur Sweet Love Die[Reno And Smiley]
TTITLE5=Moore And Napier - Barbara Allen[Moore And Napier]
TTITLE6=Lester Flatt and Earl Scruggs And The Foggy Mountain Boys - Old Salty Dog
TTITLE6=Blues[Lester Flatt and Earl Scruggs And The Foggy Mountain Boys]
TTITLE7=The Country Gentlemen - Fox On The Run[The Country Gentlemen]
TTITLE8=Eric Weissberg And Steve Mandel - Dueling Banjos[Eric Weissberg And Ste
TTITLE8=ve Mandel]
TTITLE9=The Del McCoury Band - Nashville Cats[The Del McCoury Band]
TTITLE10=Rhonda Vincent - Bluegrass Express[Rhonda Vincent]
TTITLE11=Alison Krauss and Union Station - I've Got That Old Feeling[Alison Kraus
TTITLE11=s and Union Station]
TTITLE12=Longview - Lonesome Old Home[Longview}
TTITLE13=Boone Creek - Drifting Too Far From The Shore[Boone Creek]
TTITLE14=Emmylou Harris - Wayfaring Stranger[Emmylou Harris]
EXTD=
EXTT0=
EXTT1=
EXTT2=
EXTT3=
EXTT4=
EXTT5=
EXTT6=
EXTT7=
EXTT8=
EXTT9=
EXTT10=
EXTT11=
EXTT12=
EXTT13=
EXTT14=
PLAYORDER=
